<?xml version="1.0" encoding="iso-8859-1"?>
<!-- Uploaded to: SVG Repo, www.svgrepo.com, Transformed by: SVG Repo Mixer Tools -->
<svg fill="#000000" height="800px" width="800px" version="1.1" id="Layer_1" xmlns="http://www.w3.org/2000/svg" xmlns:xlink="http://www.w3.org/1999/xlink" 
	viewBox="0 0 512 512" xml:space="preserve">
<g>
	<g>
		<path d="M392.09,122.767l15.446-24.272c6.858-10.778,3.681-25.076-7.097-31.935c-10.777-6.86-25.076-3.681-31.935,7.099
			l-15.409,24.215c-22.708-11.316-47.642-18.798-73.962-21.58V46.265h1.448c12.775,0,23.133-10.357,23.133-23.133
			S293.356,0,280.581,0h-49.163c-12.775,0-23.133,10.357-23.133,23.133s10.357,23.133,23.133,23.133h1.45v30.029
			C123.239,87.885,37.535,180.886,37.535,293.535C37.535,413.997,135.538,512,256,512s218.465-98.003,218.465-218.465
			C474.465,224.487,442.259,162.83,392.09,122.767z M256,465.735c-94.951,0-172.2-77.249-172.2-172.2s77.249-172.2,172.2-172.2
			s172.2,77.249,172.2,172.2S350.951,465.735,256,465.735z"/>
	</g>
</g>
<g>
	<g>
		<path d="M333.172,205.084c-9.623-8.397-24.238-7.407-32.638,2.222l-61.964,71.02c-8.399,9.626-7.404,24.24,2.222,32.638
			c9.626,8.399,24.24,7.404,32.638-2.222l61.964-71.02C343.794,228.096,342.798,213.484,333.172,205.084z"/>
	</g>
</g>
</svg>